HIERARCHY
ROOT Pelvis
{
	OFFSET 0.000000 0.000000 0.000000
	CHANNELS 6 Xposition Yposition Zposition Xrotation Yrotation Zrotation
	JOINT LeftUpLeg_virtual
	{
		OFFSET 0.000000 0.000000 0.000000
		CHANNELS 3 Xrotation Yrotation Zrotation
		JOINT LeftUpLeg
		{
			OFFSET 18.735201 -5.666702 -4.541200
			CHANNELS 3 Xrotation Yrotation Zrotation
			JOINT LeftLeg
			{
				OFFSET -0.021200 -31.938179 0.493100
				CHANNELS 3 Xrotation Yrotation Zrotation
				JOINT LeftFoot
				{
					OFFSET 0.021200 -31.938179 -4.336299
					CHANNELS 3 Xrotation Yrotation Zrotation
					JOINT LeftToeBase
					{
						OFFSET 0.943001 -26.722000 15.023500
						CHANNELS 3 Xrotation Yrotation Zrotation
						End Site
						{
							OFFSET 0 0 0
						}
					}
				}
			}
		}
	}
	JOINT RightUpLeg_virtual
	{
		OFFSET 0.000000 0.000000 0.000000
		CHANNELS 3 Xrotation Yrotation Zrotation
		JOINT RightUpLeg
		{
			OFFSET -18.735201 -5.666702 -4.541200
			CHANNELS 3 Xrotation Yrotation Zrotation
			JOINT RightLeg
			{
				OFFSET 0.018946 -31.938133 0.493100
				CHANNELS 3 Xrotation Yrotation Zrotation
				JOINT RightFoot
				{
					OFFSET -0.018946 -31.938126 -4.336299
					CHANNELS 3 Xrotation Yrotation Zrotation
					JOINT RightToeBase
					{
						OFFSET -0.943001 -26.722004 15.023500
						CHANNELS 3 Xrotation Yrotation Zrotation
						End Site
						{
							OFFSET 0 0 0
						}
					}
				}
			}
		}
	}
	JOINT Hips_virtual
	{
		OFFSET 0.000000 0.000000 0.000000
		CHANNELS 3 Xrotation Yrotation Zrotation
		JOINT Hips
		{
			OFFSET -0.000000 -0.000000 -0.000000
			CHANNELS 3 Xrotation Yrotation Zrotation
			JOINT Spine
			{
				OFFSET 0.000000 10.199997 -0.299500
				CHANNELS 3 Xrotation Yrotation Zrotation
				JOINT Spine1
				{
					OFFSET 0.000000 11.900002 -1.516600
					CHANNELS 3 Xrotation Yrotation Zrotation
					JOINT Spine2
					{
						OFFSET 0.000000 13.600006 -2.842500
						CHANNELS 3 Xrotation Yrotation Zrotation
						JOINT Neck_virtual
						{
							OFFSET 0.000000 0.000000 0.000000
							CHANNELS 3 Xrotation Yrotation Zrotation
							JOINT Neck
							{
								OFFSET 0.000000 9.624100 -2.890100
								CHANNELS 3 Xrotation Yrotation Zrotation
								JOINT Head
								{
									OFFSET 0.000000 14.068802 -1.351900
									CHANNELS 3 Xrotation Yrotation Zrotation
									End Site
									{
										OFFSET 0 0 0
									}
								}
							}
						}
						JOINT LeftShoulder_virtual
						{
							OFFSET 0.000000 0.000000 0.000000
							CHANNELS 3 Xrotation Yrotation Zrotation
							JOINT LeftShoulder
							{
								OFFSET 15.263000 10.923401 -0.547700
								CHANNELS 3 Xrotation Yrotation Zrotation
								JOINT LeftArm
								{
									OFFSET 25.438599 -2.830597 -13.032500
									CHANNELS 3 Xrotation Yrotation Zrotation
									JOINT LeftForeArm
									{
										OFFSET 29.960503 0.000000 0.000000
										CHANNELS 3 Xrotation Yrotation Zrotation
										JOINT LeftHand
										{
											OFFSET 27.849251 0.000000 0.000000
											CHANNELS 3 Xrotation Yrotation Zrotation
											End Site
											{
												OFFSET 0 0 0
											}
										}
									}
								}
							}
						}
						JOINT RightShoulder_virtual
						{
							OFFSET 0.000000 0.000000 0.000000
							CHANNELS 3 Xrotation Yrotation Zrotation
							JOINT RightShoulder
							{
								OFFSET -15.263000 10.923401 -0.547700
								CHANNELS 3 Xrotation Yrotation Zrotation
								JOINT RightArm
								{
									OFFSET -25.438599 -2.830597 -13.032500
									CHANNELS 3 Xrotation Yrotation Zrotation
									JOINT RightForeArm
									{
										OFFSET -29.960503 0.000000 0.000000
										CHANNELS 3 Xrotation Yrotation Zrotation
										JOINT RightHand
										{
											OFFSET -27.849251 0.000000 0.000000
											CHANNELS 3 Xrotation Yrotation Zrotation
											End Site
											{
												OFFSET 0 0 0
											}
										}
									}
								}
							}
						}
					}
				}
			}
		}
	}
}
MOTION
Frames: 12
Frame Time: 0.03333333
2.656343 90.227020 6.863994 0.000000 0.000000 0.000000 10.591225 -1.590654 2.008621 -30.817807 10.816316 20.226062 50.708947 12.886312 -11.291599 -2.348955 17.490661 -12.566239 0.000000 0.000000 0.000000 -2.274514 2.635197 5.063083 -35.017434 -4.185556 -10.445192 38.562579 -2.168445 -4.189256 -11.254385 -3.441348 2.694378 0.000000 0.000000 0.000000 6.961558 6.770369 0.188959 21.556548 8.916991 5.151522 14.707410 2.814184 -1.219132 7.184323 2.098052 -0.804662 0.000000 0.000000 0.000000 3.578421 2.507283 -2.761358 -0.361962 1.144256 -1.034462 0.000000 0.000000 0.000000 5.751672 2.730027 -2.625559 2.760157 -1.681064 -12.151573 -17.756938 -1.117711 -52.895539 -4.355557 -40.418314 -6.683856 0.000000 0.000000 0.000000 8.413979 3.149392 -1.672914 6.435271 15.790994 -1.252400 -17.239961 -1.821656 47.401120 -8.211431 42.866882 9.590324 0.000000 0.000000 0.000000 
2.682623 90.368523 7.309359 0.000000 0.000000 0.000000 10.707433 -1.694950 2.007684 -30.616214 10.822127 20.183349 50.510024 12.999354 -11.423428 -2.516772 17.652096 -12.698490 0.000000 0.000000 0.000000 -2.202102 2.419644 5.125567 -34.915336 -4.273044 -10.378115 38.360590 -2.160373 -4.186565 -11.426185 -3.445712 2.693849 0.000000 0.000000 0.000000 7.013293 6.979485 0.178228 21.513011 9.005052 5.161156 14.653744 2.928541 -1.141840 7.161628 2.162027 -0.739855 0.000000 0.000000 0.000000 3.550722 2.536252 -2.728705 -0.376355 1.141873 -1.015019 0.000000 0.000000 0.000000 5.785068 2.788700 -2.604406 2.777557 -1.619146 -12.029925 -17.770475 -0.938650 -52.712989 -4.302985 -40.203853 -6.612536 0.000000 0.000000 0.000000 8.427600 3.213393 -1.665988 6.429639 15.879375 -1.156229 -17.524862 -2.015168 47.426272 -8.339949 42.574717 9.677403 0.000000 0.000000 0.000000 
2.727982 90.623489 8.141020 0.000000 0.000000 0.000000 10.898051 -1.891637 2.008574 -30.276811 10.824321 20.108468 50.132977 13.195768 -11.657644 -2.828949 17.934388 -12.940295 0.000000 0.000000 0.000000 -2.060323 2.025263 5.234660 -34.715143 -4.432693 -10.259047 37.985578 -2.143257 -4.171907 -11.751448 -3.457014 2.712615 0.000000 0.000000 0.000000 7.121576 7.363018 0.159138 21.416113 9.187081 5.141224 14.545351 3.153444 -0.986624 7.118449 2.282099 -0.615161 0.000000 0.000000 0.000000 3.496118 2.592951 -2.661765 -0.403044 1.135494 -0.975990 0.000000 0.000000 0.000000 5.844565 2.899355 -2.558671 2.807847 -1.499605 -11.775327 -17.774949 -0.614646 -52.347796 -4.202584 -39.834708 -6.474586 0.000000 0.000000 0.000000 8.452428 3.334728 -1.647904 6.409119 16.049911 -0.961962 -18.066552 -2.342437 47.437436 -8.551991 42.032701 9.808199 0.000000 0.000000 0.000000 
2.780193 90.941719 9.261603 0.000000 0.000000 0.000000 11.093747 -2.155520 2.014017 -29.906738 10.809246 20.018677 49.614849 13.425681 -11.944857 -3.245839 18.270008 -13.253237 0.000000 0.000000 0.000000 -1.854656 1.512149 5.364011 -34.424577 -4.639345 -10.113771 37.487186 -2.116215 -4.130624 -12.198521 -3.479903 2.781745 0.000000 0.000000 0.000000 7.292493 7.870654 0.135236 21.247019 9.471697 5.034450 14.384431 3.481130 -0.755666 7.058163 2.445481 -0.439862 0.000000 0.000000 0.000000 3.417988 2.675041 -2.558953 -0.438162 1.122873 -0.917680 0.000000 0.000000 0.000000 5.918983 3.050671 -2.482771 2.844722 -1.330445 -11.372524 -17.737938 -0.200085 -51.805656 -4.063716 -39.406729 -6.278960 0.000000 0.000000 0.000000 8.484551 3.502207 -1.612742 6.360142 16.291639 -0.669631 -18.817642 -2.700943 47.369565 -8.779021 41.321948 9.913256 0.000000 0.000000 0.000000 
2.826439 91.261238 10.566745 0.000000 0.000000 0.000000 11.221050 -2.449028 2.023090 -29.622295 10.766416 19.931593 49.002509 13.633353 -12.230251 -3.721508 18.584666 -13.593829 0.000000 0.000000 0.000000 -1.591696 0.943573 5.485384 -34.054005 -4.866406 -9.971397 36.922824 -2.079965 -4.048559 -12.730212 -3.520203 2.930616 0.000000 0.000000 0.000000 7.528164 8.462096 0.109507 20.981060 9.865423 4.795551 14.181688 3.899699 -0.458164 6.984042 2.638776 -0.226380 0.000000 0.000000 0.000000 3.324201 2.779087 -2.420986 -0.476725 1.102479 -0.841649 0.000000 0.000000 0.000000 5.998177 3.229789 -2.370929 2.883596 -1.121763 -10.812403 -17.633347 0.248135 -51.105436 -3.898972 -39.017340 -6.037839 0.000000 0.000000 0.000000 8.519944 3.703168 -1.556330 6.272005 16.591382 -0.286277 -19.723925 -2.972643 47.152313 -8.958568 40.553230 9.922080 0.000000 0.000000 0.000000 
2.858778 91.520767 11.973246 0.000000 0.000000 0.000000 11.226355 -2.728781 2.029692 -29.512493 10.694005 19.858966 48.347740 13.770498 -12.467035 -4.210985 18.815189 -13.923260 0.000000 0.000000 0.000000 -1.277546 0.368871 5.577111 -33.614749 -5.093299 -9.856565 36.345124 -2.037790 -3.917328 -13.311334 -3.583660 3.175488 0.000000 0.000000 0.000000 7.822108 9.123417 0.082787 20.594600 10.367746 4.414131 13.957606 4.393147 -0.111925 6.898522 2.851349 0.011635 0.000000 0.000000 0.000000 3.226899 2.900287 -2.252319 -0.513610 1.074394 -0.751193 0.000000 0.000000 0.000000 6.076832 3.425053 -2.219066 2.923502 -0.883419 -10.099101 -17.450823 0.681476 -50.283211 -3.720634 -38.737107 -5.764895 0.000000 0.000000 0.000000 8.555488 3.925839 -1.478500 6.142492 16.936011 0.171397 -20.733917 -3.051838 46.729969 -9.055238 39.850592 9.783688 0.000000 0.000000 0.000000 
2.877636 91.671227 13.433318 0.000000 0.000000 0.000000 11.092063 -2.957523 2.024614 -29.613443 10.599663 19.803563 47.704913 13.804240 -12.624387 -4.672496 18.919474 -14.213283 0.000000 0.000000 0.000000 -0.916316 -0.183125 5.629392 -33.116684 -5.308922 -9.783565 35.793477 -1.995556 -3.737162 -13.913445 -3.674644 3.513663 0.000000 0.000000 0.000000 8.157248 9.864249 0.053062 20.074840 10.968480 3.919632 13.737847 4.942108 0.259110 6.803264 3.076318 0.261337 0.000000 0.000000 0.000000 3.139747 3.032095 -2.061108 -0.544554 1.040307 -0.651222 0.000000 0.000000 0.000000 6.155194 3.627553 -2.026188 2.966264 -0.623025 -9.251309 -17.194501 1.060764 -49.390262 -3.536058 -38.598058 -5.473211 0.000000 0.000000 0.000000 8.589160 4.160227 -1.383308 5.979385 17.313602 0.678046 -21.801641 -2.865266 46.074492 -9.063790 39.328339 9.475446 0.000000 0.000000 0.000000 
2.890736 91.683830 14.932974 0.000000 0.000000 0.000000 10.839507 -3.115617 1.999905 -29.902442 10.497134 19.760384 47.129757 13.719453 -12.688811 -5.066535 18.878467 -14.447325 0.000000 0.000000 0.000000 -0.509007 -0.699094 5.645118 -32.565382 -5.510568 -9.754007 35.291003 -1.960742 -3.516840 -14.516223 -3.795081 3.924276 0.000000 0.000000 0.000000 8.507620 10.698753 0.016050 19.428135 11.647772 3.368414 13.544555 5.525440 0.630130 6.699467 3.309234 0.512113 0.000000 0.000000 0.000000 3.074021 3.166262 -1.857952 -0.566831 1.002711 -0.547559 0.000000 0.000000 0.000000 6.236603 3.831373 -1.795148 3.013613 -0.345600 -8.298457 -16.875818 1.352208 -48.485577 -3.344614 -38.598441 -5.173446 0.000000 0.000000 0.000000 8.619205 4.397759 -1.277695 5.797549 17.713064 1.203466 -22.883393 -2.380820 45.189320 -8.997464 39.066804 9.000754 0.000000 0.000000 0.000000 
2.907983 91.553383 16.479349 0.000000 0.000000 0.000000 10.518545 -3.204545 1.952382 -30.312366 10.401270 19.720891 46.675836 13.517803 -12.660398 -5.355933 18.693369 -14.617274 0.000000 0.000000 0.000000 -0.052548 -1.170741 5.636783 -31.959217 -5.700223 -9.758185 34.846232 -1.941199 -3.271213 -15.105839 -3.944136 4.374108 0.000000 0.000000 0.000000 8.843540 11.623046 -0.032971 18.681085 12.378773 2.822727 13.388215 6.122076 0.980680 6.587721 3.545801 0.755736 0.000000 0.000000 0.000000 3.035684 3.293528 -1.654248 -0.579431 0.963817 -0.445997 0.000000 0.000000 0.000000 6.323561 4.032854 -1.532836 3.064237 -0.054525 -7.275041 -16.507165 1.526122 -47.625079 -3.138397 -38.715910 -4.872570 0.000000 0.000000 0.000000 8.642887 4.630508 -1.169836 5.613308 18.122881 1.716732 -23.932843 -1.605722 44.104673 -8.872315 39.096529 8.381073 0.000000 0.000000 0.000000 
2.935518 91.297157 18.085329 0.000000 0.000000 0.000000 10.189136 -3.238934 1.884114 -30.758193 10.324528 19.677451 46.386793 13.215629 -12.546630 -5.509782 18.381335 -14.717888 0.000000 0.000000 0.000000 0.460459 -1.586924 5.621314 -31.287925 -5.880928 -9.779198 34.457481 -1.943998 -3.017459 -15.672006 -4.118720 4.825850 0.000000 0.000000 0.000000 9.138720 12.603619 -0.096836 17.870956 13.130561 2.332897 13.264374 6.712269 1.297217 6.467525 3.780046 0.985424 0.000000 0.000000 0.000000 3.024822 3.404787 -1.460897 -0.582800 0.924756 -0.351587 0.000000 0.000000 0.000000 6.414546 4.229455 -1.249749 3.112647 0.247274 -6.216103 -16.100221 1.560682 -46.850358 -2.906519 -38.920105 -4.573426 0.000000 0.000000 0.000000 8.655452 4.850686 -1.067983 5.439004 18.529639 2.188589 -24.899106 -0.577822 42.867715 -8.696987 39.397614 7.647379 0.000000 0.000000 0.000000 
2.972672 90.950378 19.757893 0.000000 0.000000 0.000000 9.903101 -3.231288 1.800089 -31.163332 10.276195 19.625886 46.285842 12.841577 -12.356273 -5.510583 17.971240 -14.740960 0.000000 0.000000 0.000000 1.040469 -1.933258 5.614857 -30.534108 -6.054997 -9.798037 34.118270 -1.974470 -2.771062 -16.205001 -4.314490 5.246512 0.000000 0.000000 0.000000 9.376001 13.582133 -0.174837 17.029866 13.870121 1.928751 13.156169 7.277414 1.572433 6.337091 4.003935 1.194551 0.000000 0.000000 0.000000 3.037109 3.492161 -1.287631 -0.578365 0.885311 -0.268370 0.000000 0.000000 0.000000 6.502955 4.418609 -0.958981 3.150324 0.557150 -5.155388 -15.666904 1.448513 -46.180323 -2.640301 -39.180082 -4.274749 0.000000 0.000000 0.000000 8.650048 5.050574 -0.979860 5.279901 18.917232 2.592159 -25.730388 0.646202 41.532024 -8.471274 39.914806 6.834146 0.000000 0.000000 0.000000 
3.013340 90.560219 21.493048 0.000000 0.000000 0.000000 9.693124 -3.178897 1.705293 -31.475660 10.263404 19.565791 46.366767 12.433279 -12.095547 -5.361341 17.499488 -14.672221 0.000000 0.000000 0.000000 1.696876 -2.197959 5.628852 -29.679177 -6.223869 -9.798283 33.822175 -2.035284 -2.542644 -16.693915 -4.526728 5.613877 0.000000 0.000000 0.000000 9.549860 14.493520 -0.262596 16.169932 14.563205 1.620169 13.040853 7.799019 1.802516 6.193729 4.208108 1.376002 0.000000 0.000000 0.000000 3.065993 3.549520 -1.142891 -0.568220 0.844108 -0.199562 0.000000 0.000000 0.000000 6.578555 4.596914 -0.674681 3.168494 0.873159 -4.125577 -15.219130 1.201379 -45.608124 -2.336539 -39.466739 -3.971466 0.000000 0.000000 0.000000 8.618573 5.222814 -0.912278 5.134262 19.266785 2.903047 -26.380984 2.001972 40.150495 -8.190914 40.580606 5.976448 0.000000 0.000000 0.000000 
